<mxfile host="app.diagrams.net" modified="2024-06-20T15:58:21.370Z" agent="Mozilla/5.0 (Windows NT 10.0; Win64; x64) AppleWebKit/537.36 (KHTML, like Gecko) Chrome/126.0.0.0 Safari/537.36" version="24.5.5" etag="XKDbiTJb-B66qAKFvnje" type="github">
  <diagram name="Page-1" id="bpR9NLsr8caJUx8T1Dy_">
    <mxGraphModel>
      <root>
        <mxCell id="0" />
        <mxCell id="1" parent="0" />
      </root>
    </mxGraphModel>
  </diagram>
</mxfile>
